<svg xmlns="http://www.w3.org/2000/svg" viewBox="0 0 128 128" role="img" aria-label="tab-tab">
  <defs>
    <linearGradient id="bg" x1="18" y1="10" x2="110" y2="118" gradientUnits="userSpaceOnUse">
      <stop offset="0" stop-color="#13392f"/>
      <stop offset=".52" stop-color="#0f6b5a"/>
      <stop offset="1" stop-color="#0d201b"/>
    </linearGradient>
    <linearGradient id="sheetBack" x1="31" y1="31" x2="89" y2="91" gradientUnits="userSpaceOnUse">
      <stop offset="0" stop-color="#d7eee6"/>
      <stop offset="1" stop-color="#8ec9b4"/>
    </linearGradient>
    <linearGradient id="sheetFront" x1="42" y1="36" x2="96" y2="104" gradientUnits="userSpaceOnUse">
      <stop offset="0" stop-color="#fffdf7"/>
      <stop offset="1" stop-color="#e8f4ef"/>
    </linearGradient>
    <linearGradient id="gate" x1="53" y1="46" x2="82" y2="96" gradientUnits="userSpaceOnUse">
      <stop offset="0" stop-color="#0f7a65"/>
      <stop offset="1" stop-color="#0c5a4b"/>
    </linearGradient>
  </defs>
  <rect width="128" height="128" rx="28" fill="url(#bg)"/>
  <path d="M28 34c0-5.5 4.5-10 10-10h32c4.4 0 8.3 2.8 9.7 6.9l1.9 5.3H90c5.5 0 10 4.5 10 10v33c0 5.5-4.5 10-10 10H38c-5.5 0-10-4.5-10-10Z" fill="#082d25" opacity=".28"/>
  <path d="M31 32c0-5.5 4.5-10 10-10h31c4.1 0 7.8 2.6 9.2 6.4l2.2 6.3H89c5.5 0 10 4.5 10 10v31c0 5.5-4.5 10-10 10H41c-5.5 0-10-4.5-10-10Z" fill="url(#sheetBack)"/>
  <path d="M39 40c0-5 4-9 9-9h29.5c3.8 0 7.2 2.4 8.5 5.9l2 5.6H94c5 0 9 4 9 9v35c0 5-4 9-9 9H48c-5 0-9-4-9-9Z" fill="url(#sheetFront)"/>
  <path d="M49 47h24c4.2 0 7.5 3.4 7.5 7.5V81H64.8c-8.7 0-15.8-7.1-15.8-15.8Z" fill="url(#gate)"/>
  <path d="M80.5 54.8 91 44.3v37.2H80.5Z" fill="#0b4f43"/>
  <path d="M59 56.5h12.5" fill="none" stroke="#8fd1b8" stroke-linecap="round" stroke-width="3.5"/>
  <path d="M59 64.5h12.5" fill="none" stroke="#8fd1b8" stroke-linecap="round" stroke-width="3.5"/>
  <path d="M59 72.5h8.5" fill="none" stroke="#8fd1b8" stroke-linecap="round" stroke-width="3.5"/>
  <circle cx="91.5" cy="35.5" r="7.5" fill="#f0bf67"/>
</svg>
