<svg role="img" viewBox="0 0 48 48" xmlns="http://www.w3.org/2000/svg">
  <title>Google</title>
  <defs>
    <linearGradient id="google-blue" x1="24" x2="47" y1="19" y2="31" gradientUnits="userSpaceOnUse">
      <stop offset="0" stop-color="#4285f4"/>
      <stop offset=".55" stop-color="#2f7df6"/>
      <stop offset="1" stop-color="#1a73e8"/>
    </linearGradient>
    <linearGradient id="google-red" x1="4" x2="34" y1="4" y2="15" gradientUnits="userSpaceOnUse">
      <stop offset="0" stop-color="#fbbc05"/>
      <stop offset=".38" stop-color="#f15b42"/>
      <stop offset="1" stop-color="#ea4335"/>
    </linearGradient>
    <linearGradient id="google-yellow" x1="0" x2="12" y1="15" y2="31" gradientUnits="userSpaceOnUse">
      <stop offset="0" stop-color="#fbbc05"/>
      <stop offset="1" stop-color="#fdd663"/>
    </linearGradient>
    <linearGradient id="google-green" x1="4" x2="40" y1="33" y2="44" gradientUnits="userSpaceOnUse">
      <stop offset="0" stop-color="#34a853"/>
      <stop offset=".55" stop-color="#2bbf6a"/>
      <stop offset="1" stop-color="#188038"/>
    </linearGradient>
  </defs>
  <path fill="url(#google-red)" d="M24 9.5c3.54 0 6.71 1.22 9.21 3.6l6.85-6.85C35.9 2.38 30.47 0 24 0 14.62 0 6.51 5.38 2.56 13.22l7.98 6.19C12.43 13.72 17.74 9.5 24 9.5z"/>
  <path fill="url(#google-blue)" d="M46.98 24.55c0-1.57-.15-3.09-.38-4.55H24v9.02h12.94c-.58 2.96-2.26 5.48-4.78 7.18l7.73 6c4.51-4.18 7.09-10.36 7.09-17.65z"/>
  <path fill="url(#google-yellow)" d="M10.53 28.59c-.48-1.45-.76-2.99-.76-4.59s.27-3.14.76-4.59l-7.98-6.19C.92 16.46 0 20.12 0 24s.92 7.54 2.56 10.78l7.97-6.19z"/>
  <path fill="url(#google-green)" d="M24 48c6.48 0 11.93-2.13 15.89-5.81l-7.73-6c-2.15 1.45-4.92 2.3-8.16 2.3-6.26 0-11.57-4.22-13.47-9.91l-7.98 6.19C6.51 42.62 14.62 48 24 48z"/>
</svg>
